<svg xmlns="http://www.w3.org/2000/svg" viewBox="0 0 400 300" preserveAspectRatio="xMidYMid slice"><defs><linearGradient id="sky1" x1="0" y1="0" x2="0" y2="1"><stop offset="0" stop-color="#061334"/><stop offset=".52" stop-color="#123A72"/><stop offset="1" stop-color="#3E7FB8"/></linearGradient><radialGradient id="glow1" cx=".5" cy=".42" r=".62"><stop offset="0" stop-color="#BFE4FF" stop-opacity=".62"/><stop offset=".55" stop-color="#BFE4FF" stop-opacity=".18"/><stop offset="1" stop-color="#BFE4FF" stop-opacity="0"/></radialGradient><linearGradient id="beam1" x1="0" y1="0" x2="0" y2="1"><stop offset="0" stop-color="#DCF0FF" stop-opacity=".5"/><stop offset="1" stop-color="#DCF0FF" stop-opacity="0"/></linearGradient><radialGradient id="pool1" cx=".5" cy=".5" r=".5"><stop offset="0" stop-color="#DCF0FF" stop-opacity=".5"/><stop offset="1" stop-color="#DCF0FF" stop-opacity="0"/></radialGradient><linearGradient id="floor1" x1="0" y1="0" x2="0" y2="1"><stop offset="0" stop-color="#1B4B84"/><stop offset="1" stop-color="#0A2447"/></linearGradient><linearGradient id="fig1" x1="0" y1="0" x2="0" y2="1"><stop offset="0" stop-color="#E8F4FF"/><stop offset="1" stop-color="#9EC7EA"/></linearGradient><linearGradient id="rim1" x1="0" y1="0" x2="1" y2="1"><stop offset="0" stop-color="#FFFFFF" stop-opacity=".95"/><stop offset="1" stop-color="#FFFFFF" stop-opacity=".15"/></linearGradient><radialGradient id="vig1" cx=".5" cy=".46" r=".78"><stop offset=".55" stop-color="#000" stop-opacity="0"/><stop offset="1" stop-color="#03102B" stop-opacity=".55"/></radialGradient><radialGradient id="bok1"><stop offset="0" stop-color="#BFE4FF" stop-opacity=".5"/><stop offset=".7" stop-color="#BFE4FF" stop-opacity=".38"/><stop offset=".86" stop-color="#DCF0FF" stop-opacity=".46"/><stop offset="1" stop-color="#DCF0FF" stop-opacity="0"/></radialGradient><linearGradient id="haze1" x1="0" y1="0" x2="0" y2="1"><stop offset="0" stop-color="#DCF0FF" stop-opacity="0"/><stop offset=".6" stop-color="#DCF0FF" stop-opacity=".2"/><stop offset="1" stop-color="#DCF0FF" stop-opacity="0"/></linearGradient><linearGradient id="refg1" x1="0" y1="0" x2="0" y2="1"><stop offset="0" stop-color="#fff" stop-opacity=".34"/><stop offset=".7" stop-color="#fff" stop-opacity="0"/></linearGradient><mask id="refm1"><rect y="232" width="400" height="68" fill="url(#refg1)"/></mask><linearGradient id="grade1" x1="0" y1="0" x2="1" y2="1"><stop offset="0" stop-color="#6B3BFF" stop-opacity=".55"/><stop offset=".55" stop-color="#C13BD6" stop-opacity=".12"/><stop offset="1" stop-color="#FF7A59" stop-opacity=".5"/></linearGradient></defs><rect width="400" height="300" fill="url(#sky1)"/><circle cx="253" cy="144" r="33" fill="url(#bok1)" opacity="0.12"/><circle cx="368" cy="16" r="32" fill="url(#bok1)" opacity="0.11"/><circle cx="222" cy="84" r="29" fill="url(#bok1)" opacity="0.14"/><circle cx="55" cy="115" r="9" fill="url(#bok1)" opacity="0.30"/><circle cx="258" cy="46" r="9" fill="url(#bok1)" opacity="0.24"/><circle cx="290" cy="80" r="8" fill="url(#bok1)" opacity="0.18"/><circle cx="272" cy="27" r="9" fill="url(#bok1)" opacity="0.29"/><circle cx="304" cy="67" r="12" fill="url(#bok1)" opacity="0.29"/><circle cx="251" cy="75" r="11" fill="url(#bok1)" opacity="0.25"/><circle cx="327" cy="24" r="8" fill="url(#bok1)" opacity="0.21"/><circle cx="108" cy="128" r="13" fill="url(#bok1)" opacity="0.30"/><ellipse cx="200" cy="126" rx="188" ry="128" fill="url(#glow1)"/><g fill="#12326A" opacity=".5"><path d="M-6 216 60 128 122 216Z"/><path d="M286 216 348 120 404 216Z"/></g><g fill="#1B4A88" opacity=".7"><path d="M76 218 150 132 220 218Z"/><path d="M206 218 268 146 326 218Z"/></g><path d="M108 -10 L148 -10 L180.2 214 L39.8 214Z" fill="url(#beam1)" opacity=".32"/><path d="M114 -10 L142 -10 L162.0 214 L58.0 214Z" fill="url(#beam1)" opacity=".5"/><path d="M120 -10 L136 -10 L138.6 214 L81.4 214Z" fill="url(#beam1)" opacity=".62"/><path d="M252 -10 L292 -10 L360.2 214 L219.8 214Z" fill="url(#beam1)" opacity=".32"/><path d="M258 -10 L286 -10 L342.0 214 L238.0 214Z" fill="url(#beam1)" opacity=".5"/><path d="M264 -10 L280 -10 L318.6 214 L261.4 214Z" fill="url(#beam1)" opacity=".62"/><rect y="214" width="400" height="86" fill="url(#floor1)"/><ellipse cx="200" cy="230" rx="150" ry="30" fill="url(#pool1)"/><rect y="214" width="400" height="1.5" fill="#fff" opacity=".14"/><g mask="url(#refm1)" opacity=".55"><g transform="translate(0 464) scale(1 -1)"><path d="M200 132 C182 150 172 188 164 232 Q200 244 236 232 C228 188 218 150 200 132Z" fill="url(#fig1)"/><path d="M200 108 c-14 0 -21 10 -20 22 l4 14 h32 l4 -14 c1 -12 -6 -22 -20 -22Z" fill="#2E5D94"/><circle cx="200" cy="98" r="12" fill="#31659E"/><path d="M188 96 c-2 -14 6 -22 12 -22 s14 8 12 22 c-4 -8 -20 -8 -24 0Z" fill="#17406F"/><path d="M182 122 c-14 6 -22 22 -24 40" stroke="#31659E" stroke-width="7" fill="none" stroke-linecap="round"/><path d="M218 122 c14 6 22 22 24 40" stroke="#31659E" stroke-width="7" fill="none" stroke-linecap="round"/><path d="M206 76 a12 12 0 0 1 5 22 c10 6 12 16 11 26l-7 -1 c1 -9 -1 -15 -9 -19Z" fill="url(#rim1)" opacity=".7"/><path d="M184 80 L189 62 L195 76 L200 56 L205 76 L211 62 L216 80Z" fill="#EAF6FF"/><path d="M184 80h32v5h-32Z" fill="#BFE0FB"/><circle cx="200" cy="54" r="3" fill="#FFFFFF"/></g></g><rect y="150" width="400" height="90" fill="url(#haze1)"/><path d="M200 132 C182 150 172 188 164 232 Q200 244 236 232 C228 188 218 150 200 132Z" fill="url(#fig1)"/><path d="M200 108 c-14 0 -21 10 -20 22 l4 14 h32 l4 -14 c1 -12 -6 -22 -20 -22Z" fill="#2E5D94"/><circle cx="200" cy="98" r="12" fill="#31659E"/><path d="M188 96 c-2 -14 6 -22 12 -22 s14 8 12 22 c-4 -8 -20 -8 -24 0Z" fill="#17406F"/><path d="M182 122 c-14 6 -22 22 -24 40" stroke="#31659E" stroke-width="7" fill="none" stroke-linecap="round"/><path d="M218 122 c14 6 22 22 24 40" stroke="#31659E" stroke-width="7" fill="none" stroke-linecap="round"/><path d="M206 76 a12 12 0 0 1 5 22 c10 6 12 16 11 26l-7 -1 c1 -9 -1 -15 -9 -19Z" fill="url(#rim1)" opacity=".7"/><path d="M184 80 L189 62 L195 76 L200 56 L205 76 L211 62 L216 80Z" fill="#EAF6FF"/><path d="M184 80h32v5h-32Z" fill="#BFE0FB"/><circle cx="200" cy="54" r="3" fill="#FFFFFF"/><circle cx="120" cy="96" r="3" fill="#DCEEFF" opacity=".55"/><circle cx="286" cy="112" r="2.6" fill="#DCEEFF" opacity=".5"/><circle cx="150" cy="150" r="2" fill="#DCEEFF" opacity=".4"/><circle cx="262" cy="168" r="2.2" fill="#DCEEFF" opacity=".42"/><circle cx="96" cy="178" r="2.4" fill="#DCEEFF" opacity=".35"/><circle cx="44" cy="96" r="2.6" fill="#EAF6FF" opacity=".6"/><circle cx="334" cy="66" r="2.2" fill="#EAF6FF" opacity=".55"/><circle cx="238" cy="58" r="1.8" fill="#EAF6FF" opacity=".5"/><circle cx="72" cy="168" r="2" fill="#EAF6FF" opacity=".4"/><circle cx="300" cy="196" r="2.4" fill="#EAF6FF" opacity=".45"/><circle cx="168" cy="44" r="2" fill="#EAF6FF" opacity=".5"/><circle cx="52" cy="58" r="2.2" fill="#FFFFFF" opacity=".5"/><circle cx="96" cy="34" r="1.5" fill="#FFFFFF" opacity=".38"/><circle cx="146" cy="74" r="1.8" fill="#FFFFFF" opacity=".3"/><circle cx="318" cy="46" r="2.4" fill="#FFFFFF" opacity=".46"/><circle cx="356" cy="92" r="1.6" fill="#FFFFFF" opacity=".34"/><circle cx="262" cy="28" r="1.7" fill="#FFFFFF" opacity=".4"/><circle cx="28" cy="128" r="1.4" fill="#FFFFFF" opacity=".26"/><circle cx="376" cy="150" r="1.5" fill="#FFFFFF" opacity=".24"/><circle cx="208" cy="22" r="1.3" fill="#FFFFFF" opacity=".3"/><rect width="400" height="300" fill="url(#grade1)" style="mix-blend-mode:soft-light"/><rect width="400" height="300" fill="url(#vig1)"/></svg>