<svg xmlns="http://www.w3.org/2000/svg" viewBox="0 0 400 300" preserveAspectRatio="xMidYMid slice"><defs><linearGradient id="sky20" x1="0" y1="0" x2="0" y2="1"><stop offset="0" stop-color="#16072F"/><stop offset=".52" stop-color="#3B0F6B"/><stop offset="1" stop-color="#78209E"/></linearGradient><radialGradient id="glow20" cx=".5" cy=".42" r=".62"><stop offset="0" stop-color="#EFC0FF" stop-opacity=".62"/><stop offset=".55" stop-color="#EFC0FF" stop-opacity=".18"/><stop offset="1" stop-color="#EFC0FF" stop-opacity="0"/></radialGradient><linearGradient id="beam20" x1="0" y1="0" x2="0" y2="1"><stop offset="0" stop-color="#FBDFFF" stop-opacity=".5"/><stop offset="1" stop-color="#FBDFFF" stop-opacity="0"/></linearGradient><radialGradient id="pool20" cx=".5" cy=".5" r=".5"><stop offset="0" stop-color="#FBDFFF" stop-opacity=".5"/><stop offset="1" stop-color="#FBDFFF" stop-opacity="0"/></radialGradient><linearGradient id="floor20" x1="0" y1="0" x2="0" y2="1"><stop offset="0" stop-color="#42126F"/><stop offset="1" stop-color="#170731"/></linearGradient><linearGradient id="fig20" x1="0" y1="0" x2="0" y2="1"><stop offset="0" stop-color="#241047"/><stop offset="1" stop-color="#0F0524"/></linearGradient><linearGradient id="rim20" x1="0" y1="0" x2="1" y2="1"><stop offset="0" stop-color="#F0D4FF" stop-opacity=".95"/><stop offset="1" stop-color="#F0D4FF" stop-opacity=".15"/></linearGradient><radialGradient id="vig20" cx=".5" cy=".46" r=".78"><stop offset=".55" stop-color="#000" stop-opacity="0"/><stop offset="1" stop-color="#0D0424" stop-opacity=".55"/></radialGradient><radialGradient id="bok20"><stop offset="0" stop-color="#EFC0FF" stop-opacity=".5"/><stop offset=".7" stop-color="#EFC0FF" stop-opacity=".38"/><stop offset=".86" stop-color="#FBDFFF" stop-opacity=".46"/><stop offset="1" stop-color="#FBDFFF" stop-opacity="0"/></radialGradient><linearGradient id="haze20" x1="0" y1="0" x2="0" y2="1"><stop offset="0" stop-color="#FBDFFF" stop-opacity="0"/><stop offset=".6" stop-color="#FBDFFF" stop-opacity=".2"/><stop offset="1" stop-color="#FBDFFF" stop-opacity="0"/></linearGradient><linearGradient id="refg20" x1="0" y1="0" x2="0" y2="1"><stop offset="0" stop-color="#fff" stop-opacity=".34"/><stop offset=".7" stop-color="#fff" stop-opacity="0"/></linearGradient><mask id="refm20"><rect y="232" width="400" height="68" fill="url(#refg20)"/></mask><linearGradient id="grade20" x1="0" y1="0" x2="1" y2="1"><stop offset="0" stop-color="#6B3BFF" stop-opacity=".55"/><stop offset=".55" stop-color="#C13BD6" stop-opacity=".12"/><stop offset="1" stop-color="#FF7A59" stop-opacity=".5"/></linearGradient></defs><rect width="400" height="300" fill="url(#sky20)"/><circle cx="73" cy="73" r="31" fill="url(#bok20)" opacity="0.12"/><circle cx="158" cy="91" r="28" fill="url(#bok20)" opacity="0.11"/><circle cx="277" cy="83" r="30" fill="url(#bok20)" opacity="0.16"/><circle cx="88" cy="33" r="11" fill="url(#bok20)" opacity="0.22"/><circle cx="128" cy="120" r="9" fill="url(#bok20)" opacity="0.30"/><circle cx="316" cy="11" r="7" fill="url(#bok20)" opacity="0.26"/><circle cx="169" cy="23" r="7" fill="url(#bok20)" opacity="0.22"/><circle cx="292" cy="116" r="7" fill="url(#bok20)" opacity="0.23"/><circle cx="248" cy="77" r="6" fill="url(#bok20)" opacity="0.31"/><circle cx="364" cy="121" r="13" fill="url(#bok20)" opacity="0.21"/><circle cx="162" cy="102" r="8" fill="url(#bok20)" opacity="0.23"/><ellipse cx="200" cy="126" rx="188" ry="128" fill="url(#glow20)"/><circle cx="50" cy="228" r="10" fill="#FF6B6B" opacity=".9"/><circle cx="47" cy="225" r="2.9" fill="#fff" opacity=".45"/><circle cx="52" cy="204" r="8" fill="#FFD166" opacity=".9"/><circle cx="50" cy="201" r="2.4" fill="#fff" opacity=".45"/><circle cx="59" cy="181" r="10" fill="#4ECDC4" opacity=".9"/><circle cx="56" cy="177" r="2.9" fill="#fff" opacity=".45"/><circle cx="70" cy="159" r="8" fill="#A78BFA" opacity=".9"/><circle cx="67" cy="156" r="2.4" fill="#fff" opacity=".45"/><circle cx="85" cy="139" r="10" fill="#FF8AD4" opacity=".9"/><circle cx="82" cy="136" r="2.9" fill="#fff" opacity=".45"/><circle cx="104" cy="122" r="8" fill="#FF6B6B" opacity=".9"/><circle cx="101" cy="120" r="2.4" fill="#fff" opacity=".45"/><circle cx="125" cy="108" r="10" fill="#FFD166" opacity=".9"/><circle cx="122" cy="105" r="2.9" fill="#fff" opacity=".45"/><circle cx="149" cy="98" r="8" fill="#4ECDC4" opacity=".9"/><circle cx="146" cy="96" r="2.4" fill="#fff" opacity=".45"/><circle cx="174" cy="92" r="10" fill="#A78BFA" opacity=".9"/><circle cx="171" cy="89" r="2.9" fill="#fff" opacity=".45"/><circle cx="200" cy="90" r="8" fill="#FF8AD4" opacity=".9"/><circle cx="197" cy="87" r="2.4" fill="#fff" opacity=".45"/><circle cx="226" cy="92" r="10" fill="#FF6B6B" opacity=".9"/><circle cx="223" cy="89" r="2.9" fill="#fff" opacity=".45"/><circle cx="251" cy="98" r="8" fill="#FFD166" opacity=".9"/><circle cx="249" cy="96" r="2.4" fill="#fff" opacity=".45"/><circle cx="275" cy="108" r="10" fill="#4ECDC4" opacity=".9"/><circle cx="272" cy="105" r="2.9" fill="#fff" opacity=".45"/><circle cx="296" cy="122" r="8" fill="#A78BFA" opacity=".9"/><circle cx="294" cy="120" r="2.4" fill="#fff" opacity=".45"/><circle cx="315" cy="139" r="10" fill="#FF8AD4" opacity=".9"/><circle cx="312" cy="136" r="2.9" fill="#fff" opacity=".45"/><circle cx="330" cy="159" r="8" fill="#FF6B6B" opacity=".9"/><circle cx="327" cy="156" r="2.4" fill="#fff" opacity=".45"/><circle cx="341" cy="181" r="10" fill="#FFD166" opacity=".9"/><circle cx="338" cy="177" r="2.9" fill="#fff" opacity=".45"/><circle cx="348" cy="204" r="8" fill="#4ECDC4" opacity=".9"/><circle cx="345" cy="201" r="2.4" fill="#fff" opacity=".45"/><circle cx="350" cy="228" r="10" fill="#A78BFA" opacity=".9"/><circle cx="347" cy="225" r="2.9" fill="#fff" opacity=".45"/><path d="M108 -10 L148 -10 L180.2 214 L39.8 214Z" fill="url(#beam20)" opacity=".32"/><path d="M114 -10 L142 -10 L162.0 214 L58.0 214Z" fill="url(#beam20)" opacity=".5"/><path d="M120 -10 L136 -10 L138.6 214 L81.4 214Z" fill="url(#beam20)" opacity=".62"/><path d="M252 -10 L292 -10 L360.2 214 L219.8 214Z" fill="url(#beam20)" opacity=".32"/><path d="M258 -10 L286 -10 L342.0 214 L238.0 214Z" fill="url(#beam20)" opacity=".5"/><path d="M264 -10 L280 -10 L318.6 214 L261.4 214Z" fill="url(#beam20)" opacity=".62"/><rect y="214" width="400" height="86" fill="url(#floor20)"/><ellipse cx="200" cy="230" rx="150" ry="30" fill="url(#pool20)"/><rect y="214" width="400" height="1.5" fill="#fff" opacity=".14"/><g mask="url(#refm20)" opacity=".55"><g transform="translate(0 464) scale(1 -1)"><rect x="104" y="200" width="192" height="10" rx="3" fill="#2B1550"/><rect x="104" y="210" width="192" height="8" fill="#1B0C36" opacity=".9"/><path d="M160 218 h80 l46 42 h-172Z" fill="#8A1240" opacity=".7"/><path d="M160 218 h80 l4 4 h-88Z" fill="#C2185B" opacity=".6"/><g><rect x="78" y="206" width="16" height="26" rx="3" fill="#2B1550"/><rect x="72" y="198" width="28" height="10" rx="4" fill="#3B1F68"/><circle cx="86" cy="192" r="7" fill="#FFD166" opacity=".95"/><rect x="306" y="206" width="16" height="26" rx="3" fill="#2B1550"/><rect x="300" y="198" width="28" height="10" rx="4" fill="#3B1F68"/><circle cx="314" cy="192" r="7" fill="#FFD166" opacity=".95"/></g></g></g><rect y="150" width="400" height="90" fill="url(#haze20)"/><rect x="104" y="200" width="192" height="10" rx="3" fill="#2B1550"/><rect x="104" y="210" width="192" height="8" fill="#1B0C36" opacity=".9"/><path d="M160 218 h80 l46 42 h-172Z" fill="#8A1240" opacity=".7"/><path d="M160 218 h80 l4 4 h-88Z" fill="#C2185B" opacity=".6"/><g><rect x="78" y="206" width="16" height="26" rx="3" fill="#2B1550"/><rect x="72" y="198" width="28" height="10" rx="4" fill="#3B1F68"/><circle cx="86" cy="192" r="7" fill="#FFD166" opacity=".95"/><rect x="306" y="206" width="16" height="26" rx="3" fill="#2B1550"/><rect x="300" y="198" width="28" height="10" rx="4" fill="#3B1F68"/><circle cx="314" cy="192" r="7" fill="#FFD166" opacity=".95"/></g><g stroke="#FFE9A8" stroke-width="1.2" opacity=".45" fill="none"><path d="M-4 30 Q90 70 184 34"/><path d="M216 34 Q310 70 404 30"/></g><circle cx="30" cy="44" r="2.6" fill="#FFE9A8" opacity=".55"/><circle cx="78" cy="58" r="2.4" fill="#FFE9A8" opacity=".5"/><circle cx="126" cy="52" r="2.4" fill="#FFE9A8" opacity=".5"/><circle cx="274" cy="52" r="2.4" fill="#FFE9A8" opacity=".5"/><circle cx="322" cy="58" r="2.4" fill="#FFE9A8" opacity=".5"/><circle cx="370" cy="44" r="2.6" fill="#FFE9A8" opacity=".55"/><circle cx="52" cy="58" r="2.2" fill="#FFFFFF" opacity=".5"/><circle cx="96" cy="34" r="1.5" fill="#FFFFFF" opacity=".38"/><circle cx="146" cy="74" r="1.8" fill="#FFFFFF" opacity=".3"/><circle cx="318" cy="46" r="2.4" fill="#FFFFFF" opacity=".46"/><circle cx="356" cy="92" r="1.6" fill="#FFFFFF" opacity=".34"/><circle cx="262" cy="28" r="1.7" fill="#FFFFFF" opacity=".4"/><circle cx="28" cy="128" r="1.4" fill="#FFFFFF" opacity=".26"/><circle cx="376" cy="150" r="1.5" fill="#FFFFFF" opacity=".24"/><circle cx="208" cy="22" r="1.3" fill="#FFFFFF" opacity=".3"/><rect width="400" height="300" fill="url(#grade20)" style="mix-blend-mode:soft-light"/><rect width="400" height="300" fill="url(#vig20)"/></svg>