<svg xmlns="http://www.w3.org/2000/svg" viewBox="0 0 400 300" preserveAspectRatio="xMidYMid slice"><defs><linearGradient id="sky27" x1="0" y1="0" x2="0" y2="1"><stop offset="0" stop-color="#050C24"/><stop offset=".52" stop-color="#0E2152"/><stop offset="1" stop-color="#1E4290"/></linearGradient><radialGradient id="glow27" cx=".5" cy=".42" r=".62"><stop offset="0" stop-color="#A8CCFF" stop-opacity=".62"/><stop offset=".55" stop-color="#A8CCFF" stop-opacity=".18"/><stop offset="1" stop-color="#A8CCFF" stop-opacity="0"/></radialGradient><linearGradient id="beam27" x1="0" y1="0" x2="0" y2="1"><stop offset="0" stop-color="#D2E4FF" stop-opacity=".5"/><stop offset="1" stop-color="#D2E4FF" stop-opacity="0"/></linearGradient><radialGradient id="pool27" cx=".5" cy=".5" r=".5"><stop offset="0" stop-color="#D2E4FF" stop-opacity=".5"/><stop offset="1" stop-color="#D2E4FF" stop-opacity="0"/></radialGradient><linearGradient id="floor27" x1="0" y1="0" x2="0" y2="1"><stop offset="0" stop-color="#132A60"/><stop offset="1" stop-color="#060D28"/></linearGradient><linearGradient id="fig27" x1="0" y1="0" x2="0" y2="1"><stop offset="0" stop-color="#15224D"/><stop offset="1" stop-color="#070C22"/></linearGradient><linearGradient id="rim27" x1="0" y1="0" x2="1" y2="1"><stop offset="0" stop-color="#C8DCFF" stop-opacity=".95"/><stop offset="1" stop-color="#C8DCFF" stop-opacity=".15"/></linearGradient><radialGradient id="vig27" cx=".5" cy=".46" r=".78"><stop offset=".55" stop-color="#000" stop-opacity="0"/><stop offset="1" stop-color="#040818" stop-opacity=".55"/></radialGradient><radialGradient id="bok27"><stop offset="0" stop-color="#A8CCFF" stop-opacity=".5"/><stop offset=".7" stop-color="#A8CCFF" stop-opacity=".38"/><stop offset=".86" stop-color="#D2E4FF" stop-opacity=".46"/><stop offset="1" stop-color="#D2E4FF" stop-opacity="0"/></radialGradient><linearGradient id="haze27" x1="0" y1="0" x2="0" y2="1"><stop offset="0" stop-color="#D2E4FF" stop-opacity="0"/><stop offset=".6" stop-color="#D2E4FF" stop-opacity=".2"/><stop offset="1" stop-color="#D2E4FF" stop-opacity="0"/></linearGradient><linearGradient id="refg27" x1="0" y1="0" x2="0" y2="1"><stop offset="0" stop-color="#fff" stop-opacity=".34"/><stop offset=".7" stop-color="#fff" stop-opacity="0"/></linearGradient><mask id="refm27"><rect y="232" width="400" height="68" fill="url(#refg27)"/></mask><linearGradient id="grade27" x1="0" y1="0" x2="1" y2="1"><stop offset="0" stop-color="#6B3BFF" stop-opacity=".55"/><stop offset=".55" stop-color="#C13BD6" stop-opacity=".12"/><stop offset="1" stop-color="#FF7A59" stop-opacity=".5"/></linearGradient></defs><rect width="400" height="300" fill="url(#sky27)"/><circle cx="350" cy="78" r="27" fill="url(#bok27)" opacity="0.13"/><circle cx="209" cy="81" r="33" fill="url(#bok27)" opacity="0.16"/><circle cx="389" cy="110" r="21" fill="url(#bok27)" opacity="0.09"/><circle cx="381" cy="142" r="7" fill="url(#bok27)" opacity="0.29"/><circle cx="374" cy="93" r="11" fill="url(#bok27)" opacity="0.19"/><circle cx="174" cy="94" r="10" fill="url(#bok27)" opacity="0.21"/><circle cx="254" cy="86" r="6" fill="url(#bok27)" opacity="0.27"/><circle cx="360" cy="146" r="8" fill="url(#bok27)" opacity="0.33"/><circle cx="316" cy="69" r="9" fill="url(#bok27)" opacity="0.29"/><circle cx="384" cy="102" r="6" fill="url(#bok27)" opacity="0.30"/><circle cx="360" cy="69" r="10" fill="url(#bok27)" opacity="0.19"/><ellipse cx="200" cy="126" rx="188" ry="128" fill="url(#glow27)"/><rect x="40" y="74" width="320" height="120" rx="10" fill="#0E1633" opacity=".75"/><rect x="52" y="86" width="296" height="96" rx="6" fill="#1C2C66" opacity=".8"/><path d="M70 158 l40 -30 30 18 44 -40 36 26 40 -22 38 30" stroke="#8FD3FF" stroke-width="2.4" fill="none" opacity=".7"/><g fill="#8FD3FF" opacity=".5"><rect x="70" y="100" width="70" height="6" rx="3"/><rect x="70" y="112" width="44" height="6" rx="3"/></g><path d="M108 -10 L148 -10 L180.2 214 L39.8 214Z" fill="url(#beam27)" opacity=".32"/><path d="M114 -10 L142 -10 L162.0 214 L58.0 214Z" fill="url(#beam27)" opacity=".5"/><path d="M120 -10 L136 -10 L138.6 214 L81.4 214Z" fill="url(#beam27)" opacity=".62"/><path d="M252 -10 L292 -10 L360.2 214 L219.8 214Z" fill="url(#beam27)" opacity=".32"/><path d="M258 -10 L286 -10 L342.0 214 L238.0 214Z" fill="url(#beam27)" opacity=".5"/><path d="M264 -10 L280 -10 L318.6 214 L261.4 214Z" fill="url(#beam27)" opacity=".62"/><rect y="214" width="400" height="86" fill="url(#floor27)"/><ellipse cx="200" cy="230" rx="150" ry="30" fill="url(#pool27)"/><rect y="214" width="400" height="1.5" fill="#fff" opacity=".14"/><g mask="url(#refm27)" opacity=".55"><g transform="translate(0 464) scale(1 -1)"><circle cx="196" cy="114" r="12.5" fill="url(#fig27)"/><path d="M196 126 c-14 0 -21 10 -21 24 l2 34 h17 l3 46 h11 l3 -46 h17 l2 -34 c0 -14 -14 -24 -21 -24Z" fill="url(#fig27)"/><path d="M200 102 a12.5 12.5 0 0 1 7 22 c9 4 12 12 12 22 l-2 32 -7 1 2 -34 c0 -12 -5 -18 -12 -20Z" fill="url(#rim27)" opacity=".8"/><path d="M176 148 c-8 12 -8 24 -2 32" stroke="url(#fig27)" stroke-width="9" fill="none" stroke-linecap="round"/><rect x="166" y="176" width="16" height="22" rx="2" fill="#F2F4FA" transform="rotate(-12 174 187)"/><path d="M212 148 c12 6 22 8 32 4" stroke="url(#fig27)" stroke-width="9" fill="none" stroke-linecap="round"/></g></g><rect y="150" width="400" height="90" fill="url(#haze27)"/><circle cx="196" cy="114" r="12.5" fill="url(#fig27)"/><path d="M196 126 c-14 0 -21 10 -21 24 l2 34 h17 l3 46 h11 l3 -46 h17 l2 -34 c0 -14 -14 -24 -21 -24Z" fill="url(#fig27)"/><path d="M200 102 a12.5 12.5 0 0 1 7 22 c9 4 12 12 12 22 l-2 32 -7 1 2 -34 c0 -12 -5 -18 -12 -20Z" fill="url(#rim27)" opacity=".8"/><path d="M176 148 c-8 12 -8 24 -2 32" stroke="url(#fig27)" stroke-width="9" fill="none" stroke-linecap="round"/><rect x="166" y="176" width="16" height="22" rx="2" fill="#F2F4FA" transform="rotate(-12 174 187)"/><path d="M212 148 c12 6 22 8 32 4" stroke="url(#fig27)" stroke-width="9" fill="none" stroke-linecap="round"/><path d="M246 170 h64 l-6 62 h-52 Z" fill="#1A1F3D"/><path d="M244 164 h68 v10 h-68 Z" fill="#2B3566"/><rect x="266" y="192" width="24" height="16" rx="3" fill="#6B8CFF" opacity=".75"/><path d="M274 164 c0 -12 -2 -20 -10 -26" stroke="#C9CFE0" stroke-width="2.2" fill="none"/><ellipse cx="262" cy="136" rx="4" ry="5.5" fill="#39405E"/><circle cx="52" cy="58" r="2.2" fill="#FFFFFF" opacity=".5"/><circle cx="96" cy="34" r="1.5" fill="#FFFFFF" opacity=".38"/><circle cx="146" cy="74" r="1.8" fill="#FFFFFF" opacity=".3"/><circle cx="318" cy="46" r="2.4" fill="#FFFFFF" opacity=".46"/><circle cx="356" cy="92" r="1.6" fill="#FFFFFF" opacity=".34"/><circle cx="262" cy="28" r="1.7" fill="#FFFFFF" opacity=".4"/><circle cx="28" cy="128" r="1.4" fill="#FFFFFF" opacity=".26"/><circle cx="376" cy="150" r="1.5" fill="#FFFFFF" opacity=".24"/><circle cx="208" cy="22" r="1.3" fill="#FFFFFF" opacity=".3"/><rect width="400" height="300" fill="url(#grade27)" style="mix-blend-mode:soft-light"/><rect width="400" height="300" fill="url(#vig27)"/></svg>