<svg xmlns="http://www.w3.org/2000/svg" viewBox="0 0 400 300" preserveAspectRatio="xMidYMid slice"><defs><linearGradient id="sky7" x1="0" y1="0" x2="0" y2="1"><stop offset="0" stop-color="#03231F"/><stop offset=".52" stop-color="#07473C"/><stop offset="1" stop-color="#0D7A63"/></linearGradient><radialGradient id="glow7" cx=".5" cy=".42" r=".62"><stop offset="0" stop-color="#9BF5DC" stop-opacity=".62"/><stop offset=".55" stop-color="#9BF5DC" stop-opacity=".18"/><stop offset="1" stop-color="#9BF5DC" stop-opacity="0"/></radialGradient><linearGradient id="beam7" x1="0" y1="0" x2="0" y2="1"><stop offset="0" stop-color="#CFFBEE" stop-opacity=".5"/><stop offset="1" stop-color="#CFFBEE" stop-opacity="0"/></linearGradient><radialGradient id="pool7" cx=".5" cy=".5" r=".5"><stop offset="0" stop-color="#CFFBEE" stop-opacity=".5"/><stop offset="1" stop-color="#CFFBEE" stop-opacity="0"/></radialGradient><linearGradient id="floor7" x1="0" y1="0" x2="0" y2="1"><stop offset="0" stop-color="#0B5546"/><stop offset="1" stop-color="#03251F"/></linearGradient><linearGradient id="fig7" x1="0" y1="0" x2="0" y2="1"><stop offset="0" stop-color="#124F42"/><stop offset="1" stop-color="#07281F"/></linearGradient><linearGradient id="rim7" x1="0" y1="0" x2="1" y2="1"><stop offset="0" stop-color="#C8FBEA" stop-opacity=".95"/><stop offset="1" stop-color="#C8FBEA" stop-opacity=".15"/></linearGradient><radialGradient id="vig7" cx=".5" cy=".46" r=".78"><stop offset=".55" stop-color="#000" stop-opacity="0"/><stop offset="1" stop-color="#021A16" stop-opacity=".55"/></radialGradient><radialGradient id="bok7"><stop offset="0" stop-color="#9BF5DC" stop-opacity=".5"/><stop offset=".7" stop-color="#9BF5DC" stop-opacity=".38"/><stop offset=".86" stop-color="#CFFBEE" stop-opacity=".46"/><stop offset="1" stop-color="#CFFBEE" stop-opacity="0"/></radialGradient><linearGradient id="haze7" x1="0" y1="0" x2="0" y2="1"><stop offset="0" stop-color="#CFFBEE" stop-opacity="0"/><stop offset=".6" stop-color="#CFFBEE" stop-opacity=".2"/><stop offset="1" stop-color="#CFFBEE" stop-opacity="0"/></linearGradient><linearGradient id="refg7" x1="0" y1="0" x2="0" y2="1"><stop offset="0" stop-color="#fff" stop-opacity=".34"/><stop offset=".7" stop-color="#fff" stop-opacity="0"/></linearGradient><mask id="refm7"><rect y="232" width="400" height="68" fill="url(#refg7)"/></mask><linearGradient id="grade7" x1="0" y1="0" x2="1" y2="1"><stop offset="0" stop-color="#6B3BFF" stop-opacity=".55"/><stop offset=".55" stop-color="#C13BD6" stop-opacity=".12"/><stop offset="1" stop-color="#FF7A59" stop-opacity=".5"/></linearGradient></defs><rect width="400" height="300" fill="url(#sky7)"/><circle cx="16" cy="130" r="25" fill="url(#bok7)" opacity="0.09"/><circle cx="306" cy="50" r="24" fill="url(#bok7)" opacity="0.11"/><circle cx="266" cy="91" r="23" fill="url(#bok7)" opacity="0.11"/><circle cx="272" cy="82" r="11" fill="url(#bok7)" opacity="0.28"/><circle cx="317" cy="67" r="8" fill="url(#bok7)" opacity="0.26"/><circle cx="374" cy="124" r="6" fill="url(#bok7)" opacity="0.34"/><circle cx="360" cy="20" r="7" fill="url(#bok7)" opacity="0.21"/><circle cx="380" cy="99" r="8" fill="url(#bok7)" opacity="0.21"/><circle cx="366" cy="56" r="7" fill="url(#bok7)" opacity="0.29"/><circle cx="275" cy="93" r="11" fill="url(#bok7)" opacity="0.18"/><circle cx="48" cy="27" r="12" fill="url(#bok7)" opacity="0.30"/><ellipse cx="200" cy="126" rx="188" ry="128" fill="url(#glow7)"/><path d="M0 46 Q60 96 120 46 Q180 96 240 46 Q300 96 360 46 Q390 78 400 52 V-4H0Z" fill="#0C5E4C" opacity=".5"/><g stroke="#8FF3D6" stroke-width="1.4" opacity=".3" fill="none"><path d="M0 62 Q60 112 120 62 Q180 112 240 62 Q300 112 360 62"/></g><path d="M108 -10 L148 -10 L180.2 214 L39.8 214Z" fill="url(#beam7)" opacity=".32"/><path d="M114 -10 L142 -10 L162.0 214 L58.0 214Z" fill="url(#beam7)" opacity=".5"/><path d="M120 -10 L136 -10 L138.6 214 L81.4 214Z" fill="url(#beam7)" opacity=".62"/><path d="M252 -10 L292 -10 L360.2 214 L219.8 214Z" fill="url(#beam7)" opacity=".32"/><path d="M258 -10 L286 -10 L342.0 214 L238.0 214Z" fill="url(#beam7)" opacity=".5"/><path d="M264 -10 L280 -10 L318.6 214 L261.4 214Z" fill="url(#beam7)" opacity=".62"/><rect y="214" width="400" height="86" fill="url(#floor7)"/><ellipse cx="200" cy="230" rx="150" ry="30" fill="url(#pool7)"/><rect y="214" width="400" height="1.5" fill="#fff" opacity=".14"/><g mask="url(#refm7)" opacity=".55"><g transform="translate(0 464) scale(1 -1)"><circle cx="176" cy="112" r="12.5" fill="url(#fig7)"/><path d="M176 124 c-14 0 -21 10 -21 24 l2 34 h17 l3 48 h11 l3 -48 h17 l2 -34 c0 -14 -14 -24 -21 -24Z" fill="url(#fig7)"/><path d="M180 100 a12.5 12.5 0 0 1 7 22 c9 4 12 12 12 22 l-2 32 -7 1 2 -34 c0 -12 -5 -18 -12 -20Z" fill="url(#rim7)" opacity=".8"/><circle cx="176" cy="112" r="5" fill="#FF5A5A"/><path d="M158 104 a20 20 0 0 1 36 0Z" fill="#FFD166" opacity=".9"/><path d="M156 108 c-8 0 -10 10 -2 12" stroke="#FF8A3D" stroke-width="5" fill="none" stroke-linecap="round"/><path d="M196 108 c8 0 10 10 2 12" stroke="#FF8A3D" stroke-width="5" fill="none" stroke-linecap="round"/><g><path d="M276 86 L248 176" stroke="#DFF7EE" stroke-width="1" opacity=".45"/><ellipse cx="276" cy="74" rx="13" ry="16" fill="#FF6B6B" opacity=".92"/><ellipse cx="272" cy="69" rx="4" ry="5" fill="#fff" opacity=".4"/></g><g><path d="M306 108 L248 176" stroke="#DFF7EE" stroke-width="1" opacity=".45"/><ellipse cx="306" cy="96" rx="13" ry="16" fill="#FFD166" opacity=".92"/><ellipse cx="302" cy="91" rx="4" ry="5" fill="#fff" opacity=".4"/></g><g><path d="M288 130 L248 176" stroke="#DFF7EE" stroke-width="1" opacity=".45"/><ellipse cx="288" cy="118" rx="13" ry="16" fill="#4ECDC4" opacity=".92"/><ellipse cx="284" cy="113" rx="4" ry="5" fill="#fff" opacity=".4"/></g><g><path d="M320 74 L248 176" stroke="#DFF7EE" stroke-width="1" opacity=".45"/><ellipse cx="320" cy="62" rx="13" ry="16" fill="#A78BFA" opacity=".92"/><ellipse cx="316" cy="57" rx="4" ry="5" fill="#fff" opacity=".4"/></g></g></g><rect y="150" width="400" height="90" fill="url(#haze7)"/><circle cx="176" cy="112" r="12.5" fill="url(#fig7)"/><path d="M176 124 c-14 0 -21 10 -21 24 l2 34 h17 l3 48 h11 l3 -48 h17 l2 -34 c0 -14 -14 -24 -21 -24Z" fill="url(#fig7)"/><path d="M180 100 a12.5 12.5 0 0 1 7 22 c9 4 12 12 12 22 l-2 32 -7 1 2 -34 c0 -12 -5 -18 -12 -20Z" fill="url(#rim7)" opacity=".8"/><circle cx="176" cy="112" r="5" fill="#FF5A5A"/><path d="M158 104 a20 20 0 0 1 36 0Z" fill="#FFD166" opacity=".9"/><path d="M156 108 c-8 0 -10 10 -2 12" stroke="#FF8A3D" stroke-width="5" fill="none" stroke-linecap="round"/><path d="M196 108 c8 0 10 10 2 12" stroke="#FF8A3D" stroke-width="5" fill="none" stroke-linecap="round"/><g><path d="M276 86 L248 176" stroke="#DFF7EE" stroke-width="1" opacity=".45"/><ellipse cx="276" cy="74" rx="13" ry="16" fill="#FF6B6B" opacity=".92"/><ellipse cx="272" cy="69" rx="4" ry="5" fill="#fff" opacity=".4"/></g><g><path d="M306 108 L248 176" stroke="#DFF7EE" stroke-width="1" opacity=".45"/><ellipse cx="306" cy="96" rx="13" ry="16" fill="#FFD166" opacity=".92"/><ellipse cx="302" cy="91" rx="4" ry="5" fill="#fff" opacity=".4"/></g><g><path d="M288 130 L248 176" stroke="#DFF7EE" stroke-width="1" opacity=".45"/><ellipse cx="288" cy="118" rx="13" ry="16" fill="#4ECDC4" opacity=".92"/><ellipse cx="284" cy="113" rx="4" ry="5" fill="#fff" opacity=".4"/></g><g><path d="M320 74 L248 176" stroke="#DFF7EE" stroke-width="1" opacity=".45"/><ellipse cx="320" cy="62" rx="13" ry="16" fill="#A78BFA" opacity=".92"/><ellipse cx="316" cy="57" rx="4" ry="5" fill="#fff" opacity=".4"/></g><circle cx="72" cy="108" r="3" fill="#FFE9A8" opacity=".5"/><circle cx="108" cy="158" r="2.4" fill="#FFE9A8" opacity=".45"/><circle cx="60" cy="178" r="2.6" fill="#FFE9A8" opacity=".4"/><circle cx="336" cy="176" r="2.4" fill="#FFE9A8" opacity=".4"/><circle cx="128" cy="88" r="2" fill="#FFE9A8" opacity=".4"/><circle cx="52" cy="58" r="2.2" fill="#FFFFFF" opacity=".5"/><circle cx="96" cy="34" r="1.5" fill="#FFFFFF" opacity=".38"/><circle cx="146" cy="74" r="1.8" fill="#FFFFFF" opacity=".3"/><circle cx="318" cy="46" r="2.4" fill="#FFFFFF" opacity=".46"/><circle cx="356" cy="92" r="1.6" fill="#FFFFFF" opacity=".34"/><circle cx="262" cy="28" r="1.7" fill="#FFFFFF" opacity=".4"/><circle cx="28" cy="128" r="1.4" fill="#FFFFFF" opacity=".26"/><circle cx="376" cy="150" r="1.5" fill="#FFFFFF" opacity=".24"/><circle cx="208" cy="22" r="1.3" fill="#FFFFFF" opacity=".3"/><rect width="400" height="300" fill="url(#grade7)" style="mix-blend-mode:soft-light"/><rect width="400" height="300" fill="url(#vig7)"/></svg>