<svg xmlns="http://www.w3.org/2000/svg" viewBox="0 0 400 300" preserveAspectRatio="xMidYMid slice"><defs><linearGradient id="sky8" x1="0" y1="0" x2="0" y2="1"><stop offset="0" stop-color="#1E1103"/><stop offset=".52" stop-color="#472806"/><stop offset="1" stop-color="#8A5210"/></linearGradient><radialGradient id="glow8" cx=".5" cy=".42" r=".62"><stop offset="0" stop-color="#FFD98A" stop-opacity=".62"/><stop offset=".55" stop-color="#FFD98A" stop-opacity=".18"/><stop offset="1" stop-color="#FFD98A" stop-opacity="0"/></radialGradient><linearGradient id="beam8" x1="0" y1="0" x2="0" y2="1"><stop offset="0" stop-color="#FFE9BE" stop-opacity=".5"/><stop offset="1" stop-color="#FFE9BE" stop-opacity="0"/></linearGradient><radialGradient id="pool8" cx=".5" cy=".5" r=".5"><stop offset="0" stop-color="#FFE9BE" stop-opacity=".5"/><stop offset="1" stop-color="#FFE9BE" stop-opacity="0"/></radialGradient><linearGradient id="floor8" x1="0" y1="0" x2="0" y2="1"><stop offset="0" stop-color="#573310"/><stop offset="1" stop-color="#1F1004"/></linearGradient><linearGradient id="fig8" x1="0" y1="0" x2="0" y2="1"><stop offset="0" stop-color="#3A2007"/><stop offset="1" stop-color="#1A0C02"/></linearGradient><linearGradient id="rim8" x1="0" y1="0" x2="1" y2="1"><stop offset="0" stop-color="#FFE9B8" stop-opacity=".95"/><stop offset="1" stop-color="#FFE9B8" stop-opacity=".15"/></linearGradient><radialGradient id="vig8" cx=".5" cy=".46" r=".78"><stop offset=".55" stop-color="#000" stop-opacity="0"/><stop offset="1" stop-color="#150B02" stop-opacity=".55"/></radialGradient><radialGradient id="bok8"><stop offset="0" stop-color="#FFD98A" stop-opacity=".5"/><stop offset=".7" stop-color="#FFD98A" stop-opacity=".38"/><stop offset=".86" stop-color="#FFE9BE" stop-opacity=".46"/><stop offset="1" stop-color="#FFE9BE" stop-opacity="0"/></radialGradient><linearGradient id="haze8" x1="0" y1="0" x2="0" y2="1"><stop offset="0" stop-color="#FFE9BE" stop-opacity="0"/><stop offset=".6" stop-color="#FFE9BE" stop-opacity=".2"/><stop offset="1" stop-color="#FFE9BE" stop-opacity="0"/></linearGradient><linearGradient id="refg8" x1="0" y1="0" x2="0" y2="1"><stop offset="0" stop-color="#fff" stop-opacity=".34"/><stop offset=".7" stop-color="#fff" stop-opacity="0"/></linearGradient><mask id="refm8"><rect y="232" width="400" height="68" fill="url(#refg8)"/></mask><linearGradient id="grade8" x1="0" y1="0" x2="1" y2="1"><stop offset="0" stop-color="#6B3BFF" stop-opacity=".55"/><stop offset=".55" stop-color="#C13BD6" stop-opacity=".12"/><stop offset="1" stop-color="#FF7A59" stop-opacity=".5"/></linearGradient></defs><rect width="400" height="300" fill="url(#sky8)"/><circle cx="283" cy="94" r="33" fill="url(#bok8)" opacity="0.12"/><circle cx="196" cy="143" r="27" fill="url(#bok8)" opacity="0.14"/><circle cx="19" cy="131" r="26" fill="url(#bok8)" opacity="0.10"/><circle cx="349" cy="135" r="5" fill="url(#bok8)" opacity="0.27"/><circle cx="197" cy="41" r="10" fill="url(#bok8)" opacity="0.28"/><circle cx="346" cy="64" r="11" fill="url(#bok8)" opacity="0.25"/><circle cx="23" cy="74" r="10" fill="url(#bok8)" opacity="0.22"/><circle cx="145" cy="113" r="6" fill="url(#bok8)" opacity="0.28"/><circle cx="212" cy="58" r="6" fill="url(#bok8)" opacity="0.20"/><circle cx="333" cy="114" r="9" fill="url(#bok8)" opacity="0.29"/><circle cx="305" cy="142" r="7" fill="url(#bok8)" opacity="0.28"/><ellipse cx="200" cy="126" rx="188" ry="128" fill="url(#glow8)"/><g opacity=".35" fill="#7A5410"><path d="M-4 218 C60 150 120 190 180 140 L180 218Z"/><path d="M404 218 C340 150 280 190 220 140 L220 218Z"/></g><path d="M120 -6 C140 70 112 140 132 218" stroke="#FFE1A8" stroke-width="7" fill="none" opacity=".45"/><path d="M282 -6 C262 70 292 140 270 218" stroke="#FFE1A8" stroke-width="7" fill="none" opacity=".45"/><path d="M108 -10 L148 -10 L180.2 214 L39.8 214Z" fill="url(#beam8)" opacity=".32"/><path d="M114 -10 L142 -10 L162.0 214 L58.0 214Z" fill="url(#beam8)" opacity=".5"/><path d="M120 -10 L136 -10 L138.6 214 L81.4 214Z" fill="url(#beam8)" opacity=".62"/><path d="M252 -10 L292 -10 L360.2 214 L219.8 214Z" fill="url(#beam8)" opacity=".32"/><path d="M258 -10 L286 -10 L342.0 214 L238.0 214Z" fill="url(#beam8)" opacity=".5"/><path d="M264 -10 L280 -10 L318.6 214 L261.4 214Z" fill="url(#beam8)" opacity=".62"/><rect y="214" width="400" height="86" fill="url(#floor8)"/><ellipse cx="200" cy="230" rx="150" ry="30" fill="url(#pool8)"/><rect y="214" width="400" height="1.5" fill="#fff" opacity=".14"/><g mask="url(#refm8)" opacity=".55"><g transform="translate(0 464) scale(1 -1)"><path d="M200 -4 V54" stroke="#F2C35C" stroke-width="3"/><circle cx="200" cy="116" r="60" fill="none" stroke="#F2C35C" stroke-width="6"/><circle cx="200" cy="116" r="60" fill="none" stroke="#FFF3D0" stroke-width="2" opacity=".6"/><g><circle cx="200" cy="94" r="11" fill="url(#fig8)"/><path d="M200 105 c-10 0 -15 8 -13 18 l5 22 c-14 16 -22 26 -26 40 l11 5 c6 -14 14 -24 24 -34 10 10 18 20 24 34 l11 -5 c-4 -14 -12 -24 -26 -40 l5 -22 c2 -10 -5 -18 -15 -18Z" fill="url(#fig8)"/><path d="M188 112 c-18 -2 -28 -14 -30 -30" stroke="url(#fig8)" stroke-width="7.5" fill="none" stroke-linecap="round"/><path d="M212 112 c18 -2 28 -14 30 -30" stroke="url(#fig8)" stroke-width="7.5" fill="none" stroke-linecap="round"/><path d="M205 84 a11 11 0 0 1 3 22 c9 3 11 10 10 18l-6 -1 c1 -8 -2 -12 -10 -14Z" fill="url(#rim8)" opacity=".8"/></g></g></g><rect y="150" width="400" height="90" fill="url(#haze8)"/><path d="M200 -4 V54" stroke="#F2C35C" stroke-width="3"/><circle cx="200" cy="116" r="60" fill="none" stroke="#F2C35C" stroke-width="6"/><circle cx="200" cy="116" r="60" fill="none" stroke="#FFF3D0" stroke-width="2" opacity=".6"/><g><circle cx="200" cy="94" r="11" fill="url(#fig8)"/><path d="M200 105 c-10 0 -15 8 -13 18 l5 22 c-14 16 -22 26 -26 40 l11 5 c6 -14 14 -24 24 -34 10 10 18 20 24 34 l11 -5 c-4 -14 -12 -24 -26 -40 l5 -22 c2 -10 -5 -18 -15 -18Z" fill="url(#fig8)"/><path d="M188 112 c-18 -2 -28 -14 -30 -30" stroke="url(#fig8)" stroke-width="7.5" fill="none" stroke-linecap="round"/><path d="M212 112 c18 -2 28 -14 30 -30" stroke="url(#fig8)" stroke-width="7.5" fill="none" stroke-linecap="round"/><path d="M205 84 a11 11 0 0 1 3 22 c9 3 11 10 10 18l-6 -1 c1 -8 -2 -12 -10 -14Z" fill="url(#rim8)" opacity=".8"/></g><circle cx="52" cy="58" r="2.2" fill="#FFFFFF" opacity=".5"/><circle cx="96" cy="34" r="1.5" fill="#FFFFFF" opacity=".38"/><circle cx="146" cy="74" r="1.8" fill="#FFFFFF" opacity=".3"/><circle cx="318" cy="46" r="2.4" fill="#FFFFFF" opacity=".46"/><circle cx="356" cy="92" r="1.6" fill="#FFFFFF" opacity=".34"/><circle cx="262" cy="28" r="1.7" fill="#FFFFFF" opacity=".4"/><circle cx="28" cy="128" r="1.4" fill="#FFFFFF" opacity=".26"/><circle cx="376" cy="150" r="1.5" fill="#FFFFFF" opacity=".24"/><circle cx="208" cy="22" r="1.3" fill="#FFFFFF" opacity=".3"/><rect width="400" height="300" fill="url(#grade8)" style="mix-blend-mode:soft-light"/><rect width="400" height="300" fill="url(#vig8)"/></svg>