<svg xmlns="http://www.w3.org/2000/svg" viewBox="0 0 400 300" preserveAspectRatio="xMidYMid slice"><defs><linearGradient id="sky9" x1="0" y1="0" x2="0" y2="1"><stop offset="0" stop-color="#050E2E"/><stop offset=".52" stop-color="#0F2A63"/><stop offset="1" stop-color="#1E4FA0"/></linearGradient><radialGradient id="glow9" cx=".5" cy=".42" r=".62"><stop offset="0" stop-color="#9FC6FF" stop-opacity=".62"/><stop offset=".55" stop-color="#9FC6FF" stop-opacity=".18"/><stop offset="1" stop-color="#9FC6FF" stop-opacity="0"/></radialGradient><linearGradient id="beam9" x1="0" y1="0" x2="0" y2="1"><stop offset="0" stop-color="#CFE2FF" stop-opacity=".5"/><stop offset="1" stop-color="#CFE2FF" stop-opacity="0"/></linearGradient><radialGradient id="pool9" cx=".5" cy=".5" r=".5"><stop offset="0" stop-color="#CFE2FF" stop-opacity=".5"/><stop offset="1" stop-color="#CFE2FF" stop-opacity="0"/></radialGradient><linearGradient id="floor9" x1="0" y1="0" x2="0" y2="1"><stop offset="0" stop-color="#132F63"/><stop offset="1" stop-color="#060F30"/></linearGradient><linearGradient id="fig9" x1="0" y1="0" x2="0" y2="1"><stop offset="0" stop-color="#16306B"/><stop offset="1" stop-color="#081634"/></linearGradient><linearGradient id="rim9" x1="0" y1="0" x2="1" y2="1"><stop offset="0" stop-color="#BBD8FF" stop-opacity=".95"/><stop offset="1" stop-color="#BBD8FF" stop-opacity=".15"/></linearGradient><radialGradient id="vig9" cx=".5" cy=".46" r=".78"><stop offset=".55" stop-color="#000" stop-opacity="0"/><stop offset="1" stop-color="#030A24" stop-opacity=".55"/></radialGradient><radialGradient id="bok9"><stop offset="0" stop-color="#9FC6FF" stop-opacity=".5"/><stop offset=".7" stop-color="#9FC6FF" stop-opacity=".38"/><stop offset=".86" stop-color="#CFE2FF" stop-opacity=".46"/><stop offset="1" stop-color="#CFE2FF" stop-opacity="0"/></radialGradient><linearGradient id="haze9" x1="0" y1="0" x2="0" y2="1"><stop offset="0" stop-color="#CFE2FF" stop-opacity="0"/><stop offset=".6" stop-color="#CFE2FF" stop-opacity=".2"/><stop offset="1" stop-color="#CFE2FF" stop-opacity="0"/></linearGradient><linearGradient id="refg9" x1="0" y1="0" x2="0" y2="1"><stop offset="0" stop-color="#fff" stop-opacity=".34"/><stop offset=".7" stop-color="#fff" stop-opacity="0"/></linearGradient><mask id="refm9"><rect y="232" width="400" height="68" fill="url(#refg9)"/></mask><linearGradient id="grade9" x1="0" y1="0" x2="1" y2="1"><stop offset="0" stop-color="#6B3BFF" stop-opacity=".55"/><stop offset=".55" stop-color="#C13BD6" stop-opacity=".12"/><stop offset="1" stop-color="#FF7A59" stop-opacity=".5"/></linearGradient></defs><rect width="400" height="300" fill="url(#sky9)"/><circle cx="299" cy="53" r="23" fill="url(#bok9)" opacity="0.13"/><circle cx="134" cy="74" r="25" fill="url(#bok9)" opacity="0.10"/><circle cx="337" cy="99" r="20" fill="url(#bok9)" opacity="0.12"/><circle cx="389" cy="60" r="9" fill="url(#bok9)" opacity="0.29"/><circle cx="345" cy="141" r="12" fill="url(#bok9)" opacity="0.26"/><circle cx="85" cy="113" r="8" fill="url(#bok9)" opacity="0.19"/><circle cx="163" cy="55" r="11" fill="url(#bok9)" opacity="0.29"/><circle cx="185" cy="122" r="12" fill="url(#bok9)" opacity="0.22"/><circle cx="99" cy="79" r="8" fill="url(#bok9)" opacity="0.27"/><circle cx="231" cy="80" r="13" fill="url(#bok9)" opacity="0.21"/><circle cx="10" cy="92" r="6" fill="url(#bok9)" opacity="0.20"/><ellipse cx="200" cy="126" rx="188" ry="128" fill="url(#glow9)"/><g fill="#101A3A" opacity=".6"><rect x="-6" y="148" width="40" height="70"/><rect x="38" y="120" width="30" height="98"/><rect x="72" y="156" width="34" height="62"/><rect x="110" y="132" width="26" height="86"/><rect x="250" y="138" width="30" height="80"/><rect x="284" y="160" width="34" height="58"/><rect x="322" y="124" width="32" height="94"/><rect x="358" y="150" width="46" height="68"/></g><circle cx="8" cy="140" r="1.6" fill="#9FD2FF" opacity=".35"/><circle cx="8" cy="160" r="1.6" fill="#9FD2FF" opacity=".35"/><circle cx="8" cy="180" r="1.6" fill="#9FD2FF" opacity=".35"/><circle cx="8" cy="200" r="1.6" fill="#9FD2FF" opacity=".35"/><circle cx="24" cy="140" r="1.6" fill="#9FD2FF" opacity=".35"/><circle cx="24" cy="160" r="1.6" fill="#9FD2FF" opacity=".35"/><circle cx="24" cy="180" r="1.6" fill="#9FD2FF" opacity=".35"/><circle cx="24" cy="200" r="1.6" fill="#9FD2FF" opacity=".35"/><circle cx="50" cy="140" r="1.6" fill="#9FD2FF" opacity=".35"/><circle cx="50" cy="160" r="1.6" fill="#9FD2FF" opacity=".35"/><circle cx="50" cy="180" r="1.6" fill="#9FD2FF" opacity=".35"/><circle cx="50" cy="200" r="1.6" fill="#9FD2FF" opacity=".35"/><circle cx="84" cy="140" r="1.6" fill="#9FD2FF" opacity=".35"/><circle cx="84" cy="160" r="1.6" fill="#9FD2FF" opacity=".35"/><circle cx="84" cy="180" r="1.6" fill="#9FD2FF" opacity=".35"/><circle cx="84" cy="200" r="1.6" fill="#9FD2FF" opacity=".35"/><circle cx="98" cy="140" r="1.6" fill="#9FD2FF" opacity=".35"/><circle cx="98" cy="160" r="1.6" fill="#9FD2FF" opacity=".35"/><circle cx="98" cy="180" r="1.6" fill="#9FD2FF" opacity=".35"/><circle cx="98" cy="200" r="1.6" fill="#9FD2FF" opacity=".35"/><circle cx="262" cy="140" r="1.6" fill="#9FD2FF" opacity=".35"/><circle cx="262" cy="160" r="1.6" fill="#9FD2FF" opacity=".35"/><circle cx="262" cy="180" r="1.6" fill="#9FD2FF" opacity=".35"/><circle cx="262" cy="200" r="1.6" fill="#9FD2FF" opacity=".35"/><circle cx="296" cy="140" r="1.6" fill="#9FD2FF" opacity=".35"/><circle cx="296" cy="160" r="1.6" fill="#9FD2FF" opacity=".35"/><circle cx="296" cy="180" r="1.6" fill="#9FD2FF" opacity=".35"/><circle cx="296" cy="200" r="1.6" fill="#9FD2FF" opacity=".35"/><circle cx="334" cy="140" r="1.6" fill="#9FD2FF" opacity=".35"/><circle cx="334" cy="160" r="1.6" fill="#9FD2FF" opacity=".35"/><circle cx="334" cy="180" r="1.6" fill="#9FD2FF" opacity=".35"/><circle cx="334" cy="200" r="1.6" fill="#9FD2FF" opacity=".35"/><circle cx="370" cy="140" r="1.6" fill="#9FD2FF" opacity=".35"/><circle cx="370" cy="160" r="1.6" fill="#9FD2FF" opacity=".35"/><circle cx="370" cy="180" r="1.6" fill="#9FD2FF" opacity=".35"/><circle cx="370" cy="200" r="1.6" fill="#9FD2FF" opacity=".35"/><circle cx="386" cy="140" r="1.6" fill="#9FD2FF" opacity=".35"/><circle cx="386" cy="160" r="1.6" fill="#9FD2FF" opacity=".35"/><circle cx="386" cy="180" r="1.6" fill="#9FD2FF" opacity=".35"/><circle cx="386" cy="200" r="1.6" fill="#9FD2FF" opacity=".35"/><path d="M108 -10 L148 -10 L180.2 214 L39.8 214Z" fill="url(#beam9)" opacity=".32"/><path d="M114 -10 L142 -10 L162.0 214 L58.0 214Z" fill="url(#beam9)" opacity=".5"/><path d="M120 -10 L136 -10 L138.6 214 L81.4 214Z" fill="url(#beam9)" opacity=".62"/><path d="M252 -10 L292 -10 L360.2 214 L219.8 214Z" fill="url(#beam9)" opacity=".32"/><path d="M258 -10 L286 -10 L342.0 214 L238.0 214Z" fill="url(#beam9)" opacity=".5"/><path d="M264 -10 L280 -10 L318.6 214 L261.4 214Z" fill="url(#beam9)" opacity=".62"/><rect y="214" width="400" height="86" fill="url(#floor9)"/><ellipse cx="200" cy="230" rx="150" ry="30" fill="url(#pool9)"/><rect y="214" width="400" height="1.5" fill="#fff" opacity=".14"/><g mask="url(#refm9)" opacity=".55"><g transform="translate(0 464) scale(1 -1)"><g transform="translate(0 0) scale(1.0) translate(0 0)"><path d="M200 126 c-30 6 -44 44 -56 100 h34 c6 -30 14 -52 22 -66Z" fill="#1E5BCF" opacity=".9"/><path d="M200 126 c30 6 44 44 56 100 h-34 c-6 -30 -14 -52 -22 -66Z" fill="#1E5BCF" opacity=".7"/><circle cx="200" cy="114" r="12.5" fill="url(#fig9)"/><path d="M200 126 c-14 0 -21 10 -21 24 l2 34 h17 l3 46 h11 l3 -46 h17 l2 -34 c0 -14 -14 -24 -21 -24Z" fill="url(#fig9)"/><path d="M204 102 a12.5 12.5 0 0 1 7 22 c9 4 12 12 12 22 l-2 32 -7 1 2 -34 c0 -12 -5 -18 -12 -20Z" fill="url(#rim9)" opacity=".8"/><path d="M186 106 a14 14 0 0 1 28 0Z" fill="#FFFFFF" opacity=".18"/></g></g></g><rect y="150" width="400" height="90" fill="url(#haze9)"/><g transform="translate(0 0) scale(1.0) translate(0 0)"><path d="M200 126 c-30 6 -44 44 -56 100 h34 c6 -30 14 -52 22 -66Z" fill="#1E5BCF" opacity=".9"/><path d="M200 126 c30 6 44 44 56 100 h-34 c-6 -30 -14 -52 -22 -66Z" fill="#1E5BCF" opacity=".7"/><circle cx="200" cy="114" r="12.5" fill="url(#fig9)"/><path d="M200 126 c-14 0 -21 10 -21 24 l2 34 h17 l3 46 h11 l3 -46 h17 l2 -34 c0 -14 -14 -24 -21 -24Z" fill="url(#fig9)"/><path d="M204 102 a12.5 12.5 0 0 1 7 22 c9 4 12 12 12 22 l-2 32 -7 1 2 -34 c0 -12 -5 -18 -12 -20Z" fill="url(#rim9)" opacity=".8"/><path d="M186 106 a14 14 0 0 1 28 0Z" fill="#FFFFFF" opacity=".18"/></g><g opacity=".35" stroke="#BBD8FF" stroke-width="2" fill="none"><path d="M200 44 V14"/><path d="M150 60 L132 36"/><path d="M250 60 L268 36"/><path d="M118 100 L88 90"/><path d="M282 100 L312 90"/></g><circle cx="52" cy="58" r="2.2" fill="#FFFFFF" opacity=".5"/><circle cx="96" cy="34" r="1.5" fill="#FFFFFF" opacity=".38"/><circle cx="146" cy="74" r="1.8" fill="#FFFFFF" opacity=".3"/><circle cx="318" cy="46" r="2.4" fill="#FFFFFF" opacity=".46"/><circle cx="356" cy="92" r="1.6" fill="#FFFFFF" opacity=".34"/><circle cx="262" cy="28" r="1.7" fill="#FFFFFF" opacity=".4"/><circle cx="28" cy="128" r="1.4" fill="#FFFFFF" opacity=".26"/><circle cx="376" cy="150" r="1.5" fill="#FFFFFF" opacity=".24"/><circle cx="208" cy="22" r="1.3" fill="#FFFFFF" opacity=".3"/><rect width="400" height="300" fill="url(#grade9)" style="mix-blend-mode:soft-light"/><rect width="400" height="300" fill="url(#vig9)"/></svg>