<svg xmlns="http://www.w3.org/2000/svg" viewBox="0 0 400 300"><defs><linearGradient id="p2" x1="0" y1="0" x2="0" y2="1"><stop offset="0" stop-color="#F3EEFB"/><stop offset="1" stop-color="#E0D6F2"/></linearGradient><radialGradient id="pv2" cx=".5" cy=".42" r=".62"><stop offset="0" stop-color="#FFFFFF" stop-opacity=".85"/><stop offset="1" stop-color="#FFFFFF" stop-opacity="0"/></radialGradient></defs><rect width="400" height="300" fill="url(#p2)"/><ellipse cx="200" cy="126" rx="150" ry="112" fill="url(#pv2)"/><ellipse cx="200" cy="264" rx="104" ry="17" fill="rgba(23,18,38,.14)"/><path d="M160 92h80l16 24-10 140h-92l-10-140Z" fill="#241541"/><path d="M186 92h28l-14 32Z" fill="#F5F2FA"/><path d="M160 92 148 256h30l8-140Z" fill="#170D2E"/><path d="M240 92l12 164h-30l-8-140Z" fill="#170D2E"/><path d="M186 116h28l-6 24h-16Z" fill="#B8202E"/><g transform="translate(292,182)"><path d="M-30 0h60l-4 10h-52Z" fill="#1B0F35"/><path d="M-19 0-14-46h28l5 46Z" fill="#241541"/><path d="M-19 -14h38v9h-38Z" fill="#7B3FE4"/></g><g transform="translate(104,196)"><rect x="-6" y="-46" width="12" height="92" rx="6" fill="#1B0F35"/><rect x="-6" y="-46" width="12" height="18" rx="6" fill="#F5F2FA"/><rect x="-6" y="28" width="12" height="18" rx="6" fill="#F5F2FA"/></g></svg>