<svg xmlns="http://www.w3.org/2000/svg" viewBox="0 0 400 300"><defs><linearGradient id="p20" x1="0" y1="0" x2="0" y2="1"><stop offset="0" stop-color="#2A2442"/><stop offset="1" stop-color="#1B1730"/></linearGradient><radialGradient id="pv20" cx=".5" cy=".42" r=".62"><stop offset="0" stop-color="#6B4FD8" stop-opacity=".35"/><stop offset="1" stop-color="#6B4FD8" stop-opacity="0"/></radialGradient></defs><rect width="400" height="300" fill="url(#p20)"/><ellipse cx="200" cy="126" rx="150" ry="112" fill="url(#pv20)"/><path d="M30 80 L64 114 L98 139 L132 147 L166 138 L200 117 L234 94 L268 78 L302 78 L336 95 L370 126" stroke="#3E3850" stroke-width="2.4" fill="none"/><circle cx="30" cy="96" r="18" fill="#FFE29A" opacity=".35"/><rect x="27" y="80" width="6" height="7" fill="#3E3850"/><ellipse cx="30" cy="96" rx="7" ry="10" fill="#FFD266"/><circle cx="64" cy="130" r="18" fill="#FFE29A" opacity=".35"/><rect x="61" y="114" width="6" height="7" fill="#3E3850"/><ellipse cx="64" cy="130" rx="7" ry="10" fill="#FFD266"/><circle cx="98" cy="155" r="18" fill="#FFE29A" opacity=".35"/><rect x="95" y="139" width="6" height="7" fill="#3E3850"/><ellipse cx="98" cy="155" rx="7" ry="10" fill="#FFD266"/><circle cx="132" cy="163" r="18" fill="#FFE29A" opacity=".35"/><rect x="129" y="147" width="6" height="7" fill="#3E3850"/><ellipse cx="132" cy="163" rx="7" ry="10" fill="#FFD266"/><circle cx="166" cy="154" r="18" fill="#FFE29A" opacity=".35"/><rect x="163" y="138" width="6" height="7" fill="#3E3850"/><ellipse cx="166" cy="154" rx="7" ry="10" fill="#FFD266"/><circle cx="200" cy="133" r="18" fill="#FFE29A" opacity=".35"/><rect x="197" y="117" width="6" height="7" fill="#3E3850"/><ellipse cx="200" cy="133" rx="7" ry="10" fill="#FFD266"/><circle cx="234" cy="110" r="18" fill="#FFE29A" opacity=".35"/><rect x="231" y="94" width="6" height="7" fill="#3E3850"/><ellipse cx="234" cy="110" rx="7" ry="10" fill="#FFD266"/><circle cx="268" cy="94" r="18" fill="#FFE29A" opacity=".35"/><rect x="265" y="78" width="6" height="7" fill="#3E3850"/><ellipse cx="268" cy="94" rx="7" ry="10" fill="#FFD266"/><circle cx="302" cy="94" r="18" fill="#FFE29A" opacity=".35"/><rect x="299" y="78" width="6" height="7" fill="#3E3850"/><ellipse cx="302" cy="94" rx="7" ry="10" fill="#FFD266"/><circle cx="336" cy="111" r="18" fill="#FFE29A" opacity=".35"/><rect x="333" y="95" width="6" height="7" fill="#3E3850"/><ellipse cx="336" cy="111" rx="7" ry="10" fill="#FFD266"/><circle cx="370" cy="142" r="18" fill="#FFE29A" opacity=".35"/><rect x="367" y="126" width="6" height="7" fill="#3E3850"/><ellipse cx="370" cy="142" rx="7" ry="10" fill="#FFD266"/><circle cx="330" cy="210" r="34" fill="none" stroke="#3E3850" stroke-width="2.4"/><circle cx="330" cy="210" r="24" fill="none" stroke="#3E3850" stroke-width="2.4"/></svg>