<svg xmlns="http://www.w3.org/2000/svg" viewBox="0 0 400 300"><defs><linearGradient id="p3" x1="0" y1="0" x2="0" y2="1"><stop offset="0" stop-color="#FDEDE9"/><stop offset="1" stop-color="#F6D8D1"/></linearGradient><radialGradient id="pv3" cx=".5" cy=".42" r=".62"><stop offset="0" stop-color="#FFFFFF" stop-opacity=".85"/><stop offset="1" stop-color="#FFFFFF" stop-opacity="0"/></radialGradient></defs><rect width="400" height="300" fill="url(#p3)"/><ellipse cx="200" cy="126" rx="150" ry="112" fill="url(#pv3)"/><ellipse cx="200" cy="264" rx="104" ry="17" fill="rgba(23,18,38,.14)"/><path d="M158 100h84l14 22-8 134h-96l-8-134Z" fill="#D93A32"/><path d="M158 100h84l-6 16h-72Z" fill="#F7F4F0"/><rect x="148" y="196" width="104" height="22" fill="#2A2A33"/><rect x="188" y="192" width="24" height="30" rx="4" fill="#F5C24A"/><path d="M150 244h100l-2 12h-96Z" fill="#F7F4F0"/><g transform="translate(300,120)"><path d="M-24 44c0-30 10-52 24-52s24 22 24 52c0 8-48 8-48 0Z" fill="#D93A32"/><ellipse cx="0" cy="46" rx="25" ry="8" fill="#F7F4F0"/><circle cx="0" cy="-12" r="9" fill="#F7F4F0"/></g><g transform="translate(98,206)"><path d="M-26 40c-6-22 4-40 20-40h12c16 0 26 18 20 40Z" fill="#8A5A2B"/><path d="M-22 8h56" stroke="#6E4520" stroke-width="5"/></g></svg>