<svg xmlns="http://www.w3.org/2000/svg" viewBox="0 0 400 300"><defs><linearGradient id="p5" x1="0" y1="0" x2="0" y2="1"><stop offset="0" stop-color="#F1F8EC"/><stop offset="1" stop-color="#DEEDD5"/></linearGradient><radialGradient id="pv5" cx=".5" cy=".42" r=".62"><stop offset="0" stop-color="#FFFFFF" stop-opacity=".85"/><stop offset="1" stop-color="#FFFFFF" stop-opacity="0"/></radialGradient></defs><rect width="400" height="300" fill="url(#p5)"/><ellipse cx="200" cy="126" rx="150" ry="112" fill="url(#pv5)"/><ellipse cx="200" cy="264" rx="104" ry="17" fill="rgba(23,18,38,.14)"/><ellipse cx="200" cy="188" rx="58" ry="70" fill="#F5F0E8"/><circle cx="200" cy="118" r="40" fill="#F7F3EC"/><path d="M178 84c-6-34-2-56 8-56s14 22 8 56Z" fill="#F7F3EC"/><path d="M222 84c6-34 2-56-8-56s-14 22-8 56Z" fill="#F7F3EC"/><path d="M182 82c-4-24-2-40 4-40s8 16 4 40Z" fill="#F7C6D9"/><path d="M218 82c4-24 2-40-4-40s-8 16-4 40Z" fill="#F7C6D9"/><circle cx="188" cy="114" r="4" fill="#3A2E2A"/><circle cx="212" cy="114" r="4" fill="#3A2E2A"/><path d="M200 126a7 5 0 0 1 0 10 7 5 0 0 1 0-10Z" fill="#F49CC8"/><path d="M200 136v6M200 142c-5 6-14 4-16-2M200 142c5 6 14 4 16-2" fill="none" stroke="#C9BCB2" stroke-width="2.4" stroke-linecap="round"/><circle cx="152" cy="230" r="18" fill="#F7F3EC"/><circle cx="248" cy="230" r="18" fill="#F7F3EC"/></svg>