<svg xmlns="http://www.w3.org/2000/svg" viewBox="0 0 400 300"><defs><linearGradient id="p12" x1="0" y1="0" x2="0" y2="1"><stop offset="0" stop-color="#F7F3EE"/><stop offset="1" stop-color="#E6DED3"/></linearGradient><radialGradient id="pv12" cx=".5" cy=".42" r=".62"><stop offset="0" stop-color="#FFFFFF" stop-opacity=".85"/><stop offset="1" stop-color="#FFFFFF" stop-opacity="0"/></radialGradient></defs><rect width="400" height="300" fill="url(#p12)"/><ellipse cx="200" cy="126" rx="150" ry="112" fill="url(#pv12)"/><ellipse cx="200" cy="264" rx="118" ry="16" fill="rgba(23,18,38,.13)"/><rect x="90" y="226" width="220" height="34" rx="4" fill="#8E929C"/><rect x="94" y="230" width="212" height="26" rx="2" fill="#E0A96A"/><circle cx="112" cy="243" r="7" fill="#F7F0E4" opacity=".85"/><circle cx="138" cy="243" r="7" fill="#F7F0E4" opacity=".85"/><circle cx="164" cy="243" r="7" fill="#F7F0E4" opacity=".85"/><circle cx="190" cy="243" r="7" fill="#F7F0E4" opacity=".85"/><circle cx="216" cy="243" r="7" fill="#F7F0E4" opacity=".85"/><circle cx="242" cy="243" r="7" fill="#F7F0E4" opacity=".85"/><circle cx="268" cy="243" r="7" fill="#F7F0E4" opacity=".85"/><circle cx="294" cy="243" r="7" fill="#F7F0E4" opacity=".85"/><rect x="98" y="178" width="204" height="34" rx="4" fill="#8E929C"/><rect x="102" y="182" width="196" height="26" rx="2" fill="#C2334A"/><circle cx="120" cy="195" r="5" fill="#FFFFFF" opacity=".85"/><circle cx="146" cy="195" r="5" fill="#FFFFFF" opacity=".85"/><circle cx="172" cy="195" r="5" fill="#FFFFFF" opacity=".85"/><circle cx="198" cy="195" r="5" fill="#FFFFFF" opacity=".85"/><circle cx="224" cy="195" r="5" fill="#FFFFFF" opacity=".85"/><circle cx="250" cy="195" r="5" fill="#FFFFFF" opacity=".85"/><circle cx="276" cy="195" r="5" fill="#FFFFFF" opacity=".85"/><rect x="106" y="130" width="188" height="34" rx="4" fill="#8E929C"/><rect x="110" y="134" width="180" height="26" rx="2" fill="#5A3322"/><circle cx="128" cy="147" r="5" fill="#F7B840" opacity=".85"/><circle cx="154" cy="147" r="5" fill="#F7B840" opacity=".85"/><circle cx="180" cy="147" r="5" fill="#F7B840" opacity=".85"/><circle cx="206" cy="147" r="5" fill="#F7B840" opacity=".85"/><circle cx="232" cy="147" r="5" fill="#F7B840" opacity=".85"/><circle cx="258" cy="147" r="5" fill="#F7B840" opacity=".85"/></svg>