<svg xmlns="http://www.w3.org/2000/svg" viewBox="0 0 400 300"><defs><linearGradient id="p9" x1="0" y1="0" x2="0" y2="1"><stop offset="0" stop-color="#FBF4EE"/><stop offset="1" stop-color="#EFE2D5"/></linearGradient><radialGradient id="pv9" cx=".5" cy=".42" r=".62"><stop offset="0" stop-color="#FFFFFF" stop-opacity=".85"/><stop offset="1" stop-color="#FFFFFF" stop-opacity="0"/></radialGradient></defs><rect width="400" height="300" fill="url(#p9)"/><ellipse cx="200" cy="126" rx="150" ry="112" fill="url(#pv9)"/><ellipse cx="200" cy="264" rx="118" ry="16" fill="rgba(23,18,38,.13)"/><rect x="92" y="40" width="216" height="206" rx="10" fill="#FFFFFF"/><rect x="92" y="246" width="216" height="12" fill="#E7DCC6"/><circle cx="124" cy="64" r="3" fill="#C9B27E"/><circle cx="124" cy="78" r="19" fill="#E0A96A"/><circle cx="124" cy="76" r="17" fill="#F7B8D2"/><circle cx="124" cy="78" r="6" fill="#FFFFFF"/><rect x="115" y="68" width="4" height="1.8" fill="#FFFFFF"/><rect x="130" y="84" width="4" height="1.8" fill="#FFFFFF"/><circle cx="174" cy="64" r="3" fill="#C9B27E"/><circle cx="174" cy="78" r="19" fill="#E0A96A"/><circle cx="174" cy="76" r="17" fill="#5A3322"/><circle cx="174" cy="78" r="6" fill="#FFFFFF"/><rect x="165" y="68" width="4" height="1.8" fill="#FFFFFF"/><rect x="180" y="84" width="4" height="1.8" fill="#FFFFFF"/><circle cx="224" cy="64" r="3" fill="#C9B27E"/><circle cx="224" cy="78" r="19" fill="#E0A96A"/><circle cx="224" cy="76" r="17" fill="#FFE29A"/><circle cx="224" cy="78" r="6" fill="#FFFFFF"/><rect x="215" y="68" width="4" height="1.8" fill="#FFFFFF"/><rect x="230" y="84" width="4" height="1.8" fill="#FFFFFF"/><circle cx="274" cy="64" r="3" fill="#C9B27E"/><circle cx="274" cy="78" r="19" fill="#E0A96A"/><circle cx="274" cy="76" r="17" fill="#9FE0DA"/><circle cx="274" cy="78" r="6" fill="#FFFFFF"/><rect x="265" y="68" width="4" height="1.8" fill="#FFFFFF"/><rect x="280" y="84" width="4" height="1.8" fill="#FFFFFF"/><circle cx="124" cy="112" r="3" fill="#C9B27E"/><circle cx="124" cy="126" r="19" fill="#E0A96A"/><circle cx="124" cy="124" r="17" fill="#5A3322"/><circle cx="124" cy="126" r="6" fill="#FFFFFF"/><rect x="115" y="116" width="4" height="1.8" fill="#FFFFFF"/><rect x="130" y="132" width="4" height="1.8" fill="#FFFFFF"/><circle cx="174" cy="112" r="3" fill="#C9B27E"/><circle cx="174" cy="126" r="19" fill="#E0A96A"/><circle cx="174" cy="124" r="17" fill="#FFE29A"/><circle cx="174" cy="126" r="6" fill="#FFFFFF"/><rect x="165" y="116" width="4" height="1.8" fill="#FFFFFF"/><rect x="180" y="132" width="4" height="1.8" fill="#FFFFFF"/><circle cx="224" cy="112" r="3" fill="#C9B27E"/><circle cx="224" cy="126" r="19" fill="#E0A96A"/><circle cx="224" cy="124" r="17" fill="#9FE0DA"/><circle cx="224" cy="126" r="6" fill="#FFFFFF"/><rect x="215" y="116" width="4" height="1.8" fill="#FFFFFF"/><rect x="230" y="132" width="4" height="1.8" fill="#FFFFFF"/><circle cx="274" cy="112" r="3" fill="#C9B27E"/><circle cx="274" cy="126" r="19" fill="#E0A96A"/><circle cx="274" cy="124" r="17" fill="#C9B2F5"/><circle cx="274" cy="126" r="6" fill="#FFFFFF"/><rect x="265" y="116" width="4" height="1.8" fill="#FFFFFF"/><rect x="280" y="132" width="4" height="1.8" fill="#FFFFFF"/><circle cx="124" cy="160" r="3" fill="#C9B27E"/><circle cx="124" cy="174" r="19" fill="#E0A96A"/><circle cx="124" cy="172" r="17" fill="#FFE29A"/><circle cx="124" cy="174" r="6" fill="#FFFFFF"/><rect x="115" y="164" width="4" height="1.8" fill="#FFFFFF"/><rect x="130" y="180" width="4" height="1.8" fill="#FFFFFF"/><circle cx="174" cy="160" r="3" fill="#C9B27E"/><circle cx="174" cy="174" r="19" fill="#E0A96A"/><circle cx="174" cy="172" r="17" fill="#9FE0DA"/><circle cx="174" cy="174" r="6" fill="#FFFFFF"/><rect x="165" y="164" width="4" height="1.8" fill="#FFFFFF"/><rect x="180" y="180" width="4" height="1.8" fill="#FFFFFF"/><circle cx="224" cy="160" r="3" fill="#C9B27E"/><circle cx="224" cy="174" r="19" fill="#E0A96A"/><circle cx="224" cy="172" r="17" fill="#C9B2F5"/><circle cx="224" cy="174" r="6" fill="#FFFFFF"/><rect x="215" y="164" width="4" height="1.8" fill="#FFFFFF"/><rect x="230" y="180" width="4" height="1.8" fill="#FFFFFF"/><circle cx="274" cy="160" r="3" fill="#C9B27E"/><circle cx="274" cy="174" r="19" fill="#E0A96A"/><circle cx="274" cy="172" r="17" fill="#F7B8D2"/><circle cx="274" cy="174" r="6" fill="#FFFFFF"/><rect x="265" y="164" width="4" height="1.8" fill="#FFFFFF"/><rect x="280" y="180" width="4" height="1.8" fill="#FFFFFF"/><circle cx="124" cy="208" r="3" fill="#C9B27E"/><circle cx="124" cy="222" r="19" fill="#E0A96A"/><circle cx="124" cy="220" r="17" fill="#9FE0DA"/><circle cx="124" cy="222" r="6" fill="#FFFFFF"/><rect x="115" y="212" width="4" height="1.8" fill="#FFFFFF"/><rect x="130" y="228" width="4" height="1.8" fill="#FFFFFF"/><circle cx="174" cy="208" r="3" fill="#C9B27E"/><circle cx="174" cy="222" r="19" fill="#E0A96A"/><circle cx="174" cy="220" r="17" fill="#C9B2F5"/><circle cx="174" cy="222" r="6" fill="#FFFFFF"/><rect x="165" y="212" width="4" height="1.8" fill="#FFFFFF"/><rect x="180" y="228" width="4" height="1.8" fill="#FFFFFF"/><circle cx="224" cy="208" r="3" fill="#C9B27E"/><circle cx="224" cy="222" r="19" fill="#E0A96A"/><circle cx="224" cy="220" r="17" fill="#F7B8D2"/><circle cx="224" cy="222" r="6" fill="#FFFFFF"/><rect x="215" y="212" width="4" height="1.8" fill="#FFFFFF"/><rect x="230" y="228" width="4" height="1.8" fill="#FFFFFF"/><circle cx="274" cy="208" r="3" fill="#C9B27E"/><circle cx="274" cy="222" r="19" fill="#E0A96A"/><circle cx="274" cy="220" r="17" fill="#5A3322"/><circle cx="274" cy="222" r="6" fill="#FFFFFF"/><rect x="265" y="212" width="4" height="1.8" fill="#FFFFFF"/><rect x="280" y="228" width="4" height="1.8" fill="#FFFFFF"/></svg>